0
SECTION
2
HEADER
9
$INSUNITS
70
4
9
$ACADVER
1
AC1014
9
$HANDSEED
5
FFFF
0
ENDSEC
0
SECTION
2
TABLES
0
TABLE
2
VPORT
5
8
100
AcDbSymbolTable
0
ENDTAB
0
TABLE
2
LTYPE
5
5
100
AcDbSymbolTable
0
LTYPE
5
14
100
AcDbSymbolTableRecord
100
AcDbLinetypeTableRecord
2
BYBLOCK
70
0
0
LTYPE
5
15
100
AcDbSymbolTableRecord
100
AcDbLinetypeTableRecord
2
BYLAYER
70
0
0
ENDTAB
0
TABLE
2
LAYER
5
2
100
AcDbSymbolTable
70
2
0
LAYER
5
50
100
AcDbSymbolTableRecord
100
AcDbLayerTableRecord
2
0
70
0
6
CONTINUOUS
0
ENDTAB
0
TABLE
2
STYLE
5
3
100
AcDbSymbolTable
70
1
0
STYLE
5
11
100
AcDbSymbolTableRecord
100
AcDbTextStyleTableRecord
2
STANDARD
70
0
0
ENDTAB
0
TABLE
2
VIEW
5
6
100
AcDbSymbolTable
70
0
0
ENDTAB
0
TABLE
2
UCS
5
7
100
AcDbSymbolTable
70
0
0
ENDTAB
0
TABLE
2
APPID
5
9
100
AcDbSymbolTable
70
2
0
APPID
5
12
100
AcDbSymbolTableRecord
100
AcDbRegAppTableRecord
2
ACAD
70
0
0
ENDTAB
0
TABLE
2
DIMSTYLE
5
A
100
AcDbSymbolTable
70
1
0
ENDTAB
0
TABLE
2
BLOCK_RECORD
5
1
100
AcDbSymbolTable
70
1
0
BLOCK_RECORD
5
1F
100
AcDbSymbolTableRecord
100
AcDbBlockTableRecord
2
*MODEL_SPACE
0
BLOCK_RECORD
5
1B
100
AcDbSymbolTableRecord
100
AcDbBlockTableRecord
2
*PAPER_SPACE
0
ENDTAB
0
ENDSEC
0
SECTION
2
BLOCKS
0
BLOCK
5
20
100
AcDbEntity
100
AcDbBlockBegin
2
*MODEL_SPACE
0
ENDBLK
5
21
100
AcDbEntity
100
AcDbBlockEnd
0
BLOCK
5
1C
100
AcDbEntity
100
AcDbBlockBegin
2
*PAPER_SPACE
0
ENDBLK
5
1D
100
AcDbEntity
100
AcDbBlockEnd
0
ENDSEC
0
SECTION
2
ENTITIES
0
LINE
5
100
100
AcDbEntity
8
0
100
AcDbLine
10
-12.413030787576957
20
19.500000000000028
30
0
11
-99.999999999999986
21
19.499999999999996
31
0
0
LINE
5
101
100
AcDbEntity
8
0
100
AcDbLine
10
-99.999999999999986
20
19.499999999999996
30
0
11
-99.999999999999986
21
11.499999999999929
31
0
0
ARC
5
102
100
AcDbEntity
8
0
100
AcDbCircle
10
-99.999999999999986
20
9.4999999999999272
30
0
40
1.9999999999999984
100
AcDbArc
50
-90
51
90
0
LINE
5
103
100
AcDbEntity
8
0
100
AcDbLine
10
-99.999999999999986
20
7.4999999999999289
30
0
11
-119.99999961302578
21
7.4999999999805045
31
0
0
ARC
5
104
100
AcDbEntity
8
0
100
AcDbCircle
10
-119.9999996130269
20
9.5000000002033129
30
0
40
2.0000000002228178
100
AcDbArc
50
90.000011099089562
51
270.00000000003217
0
LINE
5
105
100
AcDbEntity
8
0
100
AcDbLine
10
-120.00000000045821
20
11.500000000426095
30
0
11
-120.0000000000089
21
19.499999999999989
31
0
0
LINE
5
106
100
AcDbEntity
8
0
100
AcDbLine
10
-120.0000000000089
20
19.499999999999989
30
0
11
-154.51132644566871
21
19.499999999999975
31
0
0
ARC
5
107
100
AcDbEntity
8
0
100
AcDbCircle
10
-154.51132644566871
20
21.499999999999979
30
0
40
1.9999999999999929
100
AcDbArc
50
172.07825171938654
51
270
0
ARC
5
108
100
AcDbEntity
8
0
100
AcDbCircle
10
0
20
0
30
0
40
158.00000000000003
100
AcDbArc
50
67.921748280613542
51
172.07825171938649
0
ARC
5
109
100
AcDbEntity
8
0
100
AcDbCircle
10
58.636117041468943
20
144.56073387437948
30
0
40
2.0000000000000067
100
AcDbArc
50
-30.000000000000732
51
67.921748280611865
0
LINE
5
110
100
AcDbEntity
8
0
100
AcDbLine
10
60.368167849037818
20
143.56073387437945
30
0
11
43.112504626196838
21
113.67304845412119
31
0
0
LINE
5
111
100
AcDbEntity
8
0
100
AcDbLine
10
43.112504626196838
20
113.67304845412119
30
0
11
50.040707856385197
21
109.67304845417672
31
0
0
ARC
5
112
100
AcDbEntity
8
0
100
AcDbCircle
10
51.772758663958527
20
108.673048454175
30
0
40
2.0000000000047131
100
AcDbArc
50
-29.9999999999789
51
150.00000000002112
0
LINE
5
113
100
AcDbEntity
8
0
100
AcDbLine
10
53.504809471531857
20
107.67304845417328
30
0
11
43.504809471546594
21
90.352540378478778
31
0
0
ARC
5
114
100
AcDbEntity
8
0
100
AcDbCircle
10
41.772758663977775
20
91.352540378476945
30
0
40
1.9999999999990503
100
AcDbArc
50
150.00000000009146
51
330.00000000004462
0
LINE
5
115
100
AcDbEntity
8
0
100
AcDbLine
10
40.040707856408126
20
92.352540378473705
30
0
11
33.112504626203439
21
96.352540378443834
31
0
0
LINE
5
116
100
AcDbEntity
8
0
100
AcDbLine
10
33.112504626203439
20
96.352540378443834
30
0
11
-10.680979980008098
21
20.500000000000036
31
0
0
ARC
5
117
100
AcDbEntity
8
0
100
AcDbCircle
10
-12.413030787576966
20
21.500000000000028
30
0
40
2.0000000000000018
100
AcDbArc
50
270.00000000000023
51
330.00000000000006
0
CIRCLE
5
118
100
AcDbEntity
8
0
100
AcDbCircle
10
44.999999999998941
20
77.94228634059759
30
0
40
3.0000000000000075
0
CIRCLE
5
119
100
AcDbEntity
8
0
100
AcDbCircle
10
64.999999999998963
20
112.58330249197513
30
0
40
3.0000000000000075
0
LINE
5
120
100
AcDbEntity
8
0
100
AcDbLine
10
23.094010767585065
20
0.99999999999997868
30
0
11
66.887495373796568
21
76.852540378443834
31
0
0
LINE
5
121
100
AcDbEntity
8
0
100
AcDbLine
10
66.887495373796568
20
76.852540378443834
30
0
11
59.959292143521012
21
80.852540378443862
31
0
0
ARC
5
122
100
AcDbEntity
8
0
100
AcDbCircle
10
58.227241335952122
20
81.852540378443877
30
0
40
1.9999999999999902
100
AcDbArc
50
149.99999999999986
51
329.99999999999983
0
LINE
5
123
100
AcDbEntity
8
0
100
AcDbLine
10
56.495190528383255
20
82.852540378443877
30
0
11
66.495190334879325
21
100.17304811901286
31
0
0
ARC
5
124
100
AcDbEntity
8
0
100
AcDbCircle
10
68.227241142641731
20
99.173048118902415
30
0
40
2.000000000222804
100
AcDbArc
50
-29.999988900910505
51
150.0000000659021
0
LINE
5
125
100
AcDbEntity
8
0
100
AcDbLine
10
69.959292144119189
20
98.173048454316387
30
0
11
76.88749537380103
21
94.173048454140343
31
0
0
LINE
5
126
100
AcDbEntity
8
0
100
AcDbLine
10
76.88749537380103
20
94.173048454140343
30
0
11
94.14315859663094
21
124.06073387437944
31
0
0
ARC
5
127
100
AcDbEntity
8
0
100
AcDbCircle
10
95.875209404199794
20
123.06073387437945
30
0
40
2.0000000000000009
100
AcDbArc
50
52.078251719386095
51
150.00000000000003
0
ARC
5
128
100
AcDbEntity
8
0
100
AcDbCircle
10
0
20
0
30
0
40
158.00000000000006
100
AcDbArc
50
-52.078251719386451
51
52.078251719386436
0
ARC
5
129
100
AcDbEntity
8
0
100
AcDbCircle
10
95.875209404199751
20
-123.06073387437949
30
0
40
1.9999999999999902
100
AcDbArc
50
210.00000000000014
51
307.92174828061371
0
LINE
5
130
100
AcDbEntity
8
0
100
AcDbLine
10
94.143158596630883
20
-124.06073387437949
30
0
11
76.887495373789946
21
-94.173048454121187
31
0
0
LINE
5
131
100
AcDbEntity
8
0
100
AcDbLine
10
76.887495373789946
20
-94.173048454121187
30
0
11
69.95929214360612
21
-98.173048454073495
31
0
0
ARC
5
132
100
AcDbEntity
8
0
100
AcDbCircle
10
68.227241336033515
20
-99.173048454076479
30
0
40
2.0000000000047127
100
AcDbArc
50
-149.99999999997937
51
30.000000000020638
0
LINE
5
133
100
AcDbEntity
8
0
100
AcDbLine
10
66.49519052846091
20
-100.17304845407946
30
0
11
56.495190528448589
21
-82.852540378400604
31
0
0
ARC
5
134
100
AcDbEntity
8
0
100
AcDbCircle
10
58.227241336015851
20
-81.852540378399709
30
0
40
1.9999999999990412
100
AcDbArc
50
30.000000000090239
51
210.0000000000453
0
LINE
5
135
100
AcDbEntity
8
0
100
AcDbLine
10
59.959292143582317
20
-80.852540378397464
30
0
11
66.887495373796554
21
-76.852540378443848
31
0
0
LINE
5
136
100
AcDbEntity
8
0
100
AcDbLine
10
66.887495373796554
20
-76.852540378443848
30
0
11
23.094010767585065
21
-0.99999999999999645
31
0
0
ARC
5
137
100
AcDbEntity
8
0
100
AcDbCircle
10
24.826061575153936
20
-4.4408920985006262e-15
30
0
40
1.9999999999999873
100
AcDbArc
50
150.00000000000034
51
209.99999999999986
0
CIRCLE
5
138
100
AcDbEntity
8
0
100
AcDbCircle
10
44.999999999998899
20
-77.942286340597619
30
0
40
3.0000000000000071
0
CIRCLE
5
139
100
AcDbEntity
8
0
100
AcDbCircle
10
64.999999999998892
20
-112.58330249197516
30
0
40
3.0000000000000071
0
LINE
5
140
100
AcDbEntity
8
0
100
AcDbLine
10
-10.680979980008098
20
-20.500000000000043
30
0
11
33.112504626203425
21
-96.352540378443877
31
0
0
LINE
5
141
100
AcDbEntity
8
0
100
AcDbLine
10
33.112504626203425
20
-96.352540378443877
30
0
11
40.040707856478988
21
-92.352540378443834
31
0
0
ARC
5
142
100
AcDbEntity
8
0
100
AcDbCircle
10
41.772758664047856
20
-91.352540378443834
30
0
40
2.0000000000000053
100
AcDbArc
50
29.999999999999826
51
210.00000000000014
0
LINE
5
143
100
AcDbEntity
8
0
100
AcDbLine
10
43.504809471616745
20
-90.352540378443834
30
0
11
53.504809278146453
21
-107.67304811899339
31
0
0
ARC
5
144
100
AcDbEntity
8
0
100
AcDbCircle
10
51.77275847038517
20
-108.67304811910579
30
0
40
2.0000000002228102
100
AcDbArc
50
-149.99998890091052
51
30.000000000032458
0
LINE
5
145
100
AcDbEntity
8
0
100
AcDbLine
10
50.040707856339026
20
-109.67304845474253
30
0
11
43.112504626207873
21
-113.67304845414037
31
0
0
LINE
5
146
100
AcDbEntity
8
0
100
AcDbLine
10
43.112504626207873
20
-113.67304845414037
30
0
11
60.368167849037789
21
-143.56073387437948
31
0
0
ARC
5
147
100
AcDbEntity
8
0
100
AcDbCircle
10
58.636117041468943
20
-144.56073387437948
30
0
40
2.0000000000000036
100
AcDbArc
50
-67.921748280613102
51
30.000000000000437
0
ARC
5
148
100
AcDbEntity
8
0
100
AcDbCircle
10
0
20
0
30
0
40
158.00000000000003
100
AcDbArc
50
187.92174828061357
51
292.07825171938646
0
ARC
5
149
100
AcDbEntity
8
0
100
AcDbCircle
10
-154.51132644566871
20
-21.500000000000039
30
0
40
1.9999999999999996
100
AcDbArc
50
90
51
187.92174828061425
0
LINE
5
150
100
AcDbEntity
8
0
100
AcDbLine
10
-154.51132644566871
20
-19.500000000000039
30
0
11
-119.99999999998677
21
-19.500000000000032
31
0
0
LINE
5
151
100
AcDbEntity
8
0
100
AcDbLine
10
-119.99999999998677
20
-19.500000000000032
30
0
11
-119.9999999999913
21
-11.500000000103279
31
0
0
ARC
5
152
100
AcDbEntity
8
0
100
AcDbCircle
10
-119.99999999999203
20
-9.5000000000985718
30
0
40
2.0000000000047247
100
AcDbArc
50
90.000000000020762
51
270.00000000002075
0
LINE
5
153
100
AcDbEntity
8
0
100
AcDbLine
10
-119.99999999999275
20
-7.5000000000938467
30
0
11
-99.999999999995168
21
-7.500000000078213
31
0
0
ARC
5
154
100
AcDbEntity
8
0
100
AcDbCircle
10
-99.999999999993605
20
-9.500000000077252
30
0
40
1.9999999999990481
100
AcDbArc
50
-89.999999999908809
51
90.000000000044778
0
LINE
5
155
100
AcDbEntity
8
0
100
AcDbLine
10
-99.999999999990422
20
-11.5000000000763
30
0
11
-99.999999999999972
21
-19.500000000000032
31
0
0
LINE
5
156
100
AcDbEntity
8
0
100
AcDbLine
10
-99.999999999999972
20
-19.500000000000032
30
0
11
-12.413030787576957
21
-19.500000000000032
31
0
0
ARC
5
157
100
AcDbEntity
8
0
100
AcDbCircle
10
-12.413030787576965
20
-21.500000000000039
30
0
40
1.9999999999999882
100
AcDbArc
50
30.000000000000071
51
89.999999999999801
0
CIRCLE
5
158
100
AcDbEntity
8
0
100
AcDbCircle
10
-129.99999999999784
20
0
30
0
40
3.0000000000000071
0
CIRCLE
5
159
100
AcDbEntity
8
0
100
AcDbCircle
10
-89.99999999999784
20
0
30
0
40
3.0000000000000071
0
CIRCLE
5
160
100
AcDbEntity
8
0
100
AcDbCircle
10
0
20
0
30
0
40
173
0
LINE
5
161
100
AcDbEntity
8
0
100
AcDbLine
10
23.094010767585065
20
-1.0000000000000009
30
0
11
66.887495373796554
21
-76.852540378443848
31
0
0
LINE
5
162
100
AcDbEntity
8
0
100
AcDbLine
10
66.887495373796554
20
-76.852540378443848
30
0
11
59.959292143582317
21
-80.85254037839745
31
0
0
ARC
5
163
100
AcDbEntity
8
0
100
AcDbCircle
10
58.227241336015858
20
-81.852540378399709
30
0
40
1.9999999999990425
100
AcDbArc
50
30.00000000009069
51
210.00000000004488
0
LINE
5
164
100
AcDbEntity
8
0
100
AcDbLine
10
56.495190528448589
20
-82.85254037840059
30
0
11
66.49519052846091
21
-100.17304845407948
31
0
0
ARC
5
165
100
AcDbEntity
8
0
100
AcDbCircle
10
68.227241336033515
20
-99.173048454076479
30
0
40
2.0000000000047216
100
AcDbArc
50
-149.999999999979
51
30.000000000020638
0
LINE
5
166
100
AcDbEntity
8
0
100
AcDbLine
10
69.95929214360612
20
-98.173048454073495
30
0
11
76.887495373789946
21
-94.173048454121187
31
0
0
LINE
5
167
100
AcDbEntity
8
0
100
AcDbLine
10
76.887495373789946
20
-94.173048454121187
30
0
11
94.143158596630911
21
-124.06073387437948
31
0
0
ARC
5
168
100
AcDbEntity
8
0
100
AcDbCircle
10
95.875209404199751
20
-123.06073387437954
30
0
40
1.9999999999999327
100
AcDbArc
50
209.99999999999915
51
307.92174828061445
0
ARC
5
169
100
AcDbEntity
8
0
100
AcDbCircle
10
0
20
0
30
0
40
158
100
AcDbArc
50
-52.078251719386451
51
52.078251719386444
0
ARC
5
170
100
AcDbEntity
8
0
100
AcDbCircle
10
95.875209404199808
20
123.06073387437942
30
0
40
2.0000000000000315
100
AcDbArc
50
52.078251719387666
51
149.99999999999952
0
LINE
5
171
100
AcDbEntity
8
0
100
AcDbLine
10
94.14315859663094
20
124.06073387437944
30
0
11
76.88749537380103
21
94.173048454140343
31
0
0
LINE
5
172
100
AcDbEntity
8
0
100
AcDbLine
10
76.88749537380103
20
94.173048454140343
30
0
11
69.959292144119189
21
98.173048454316387
31
0
0
ARC
5
173
100
AcDbEntity
8
0
100
AcDbCircle
10
68.227241142641731
20
99.173048118902415
30
0
40
2.0000000002228191
100
AcDbArc
50
-29.999988900910505
51
150.00000000003229
0
LINE
5
174
100
AcDbEntity
8
0
100
AcDbLine
10
66.495190334879325
20
100.17304811901285
30
0
11
56.495190528383255
21
82.852540378443877
31
0
0
ARC
5
175
100
AcDbEntity
8
0
100
AcDbCircle
10
58.227241335952129
20
81.852540378443877
30
0
40
1.9999999999999978
100
AcDbArc
50
149.99999999999997
51
330.00000000000011
0
LINE
5
176
100
AcDbEntity
8
0
100
AcDbLine
10
59.959292143521012
20
80.852540378443877
30
0
11
66.887495373796568
21
76.852540378443834
31
0
0
LINE
5
177
100
AcDbEntity
8
0
100
AcDbLine
10
66.887495373796568
20
76.852540378443834
30
0
11
23.094010767585065
21
0.99999999999997868
31
0
0
ARC
5
178
100
AcDbEntity
8
0
100
AcDbCircle
10
24.826061575153915
20
-6.3143934525555778e-15
30
0
40
1.9999999999999689
100
AcDbArc
50
150.00000000000003
51
210.00000000000023
0
CIRCLE
5
179
100
AcDbEntity
8
0
100
AcDbCircle
10
64.999999999998963
20
112.58330249197513
30
0
40
3.0000000000000075
0
CIRCLE
5
180
100
AcDbEntity
8
0
100
AcDbCircle
10
44.999999999998941
20
77.94228634059759
30
0
40
3.0000000000000075
0
CIRCLE
5
181
100
AcDbEntity
8
0
100
AcDbCircle
10
-129.99999999999784
20
0
30
0
40
3.0000000000000071
0
CIRCLE
5
182
100
AcDbEntity
8
0
100
AcDbCircle
10
-89.99999999999784
20
0
30
0
40
3.0000000000000071
0
CIRCLE
5
183
100
AcDbEntity
8
0
100
AcDbCircle
10
0
20
0
30
0
40
173
0
CIRCLE
5
184
100
AcDbEntity
8
0
100
AcDbCircle
10
44.999999999998899
20
-77.942286340597619
30
0
40
3.0000000000000071
0
CIRCLE
5
185
100
AcDbEntity
8
0
100
AcDbCircle
10
64.999999999998892
20
-112.58330249197516
30
0
40
3.0000000000000071
0
LINE
5
186
100
AcDbEntity
8
0
100
AcDbLine
10
-12.413030787576965
20
-19.500000000000032
30
0
11
-99.999999999999972
21
-19.500000000000032
31
0
0
LINE
5
187
100
AcDbEntity
8
0
100
AcDbLine
10
-99.999999999999972
20
-19.500000000000032
30
0
11
-99.999999999990422
21
-11.5000000000763
31
0
0
ARC
5
188
100
AcDbEntity
8
0
100
AcDbCircle
10
-99.999999999993605
20
-9.5000000000772573
30
0
40
1.9999999999990437
100
AcDbArc
50
-89.999999999908809
51
90.000000000044778
0
LINE
5
189
100
AcDbEntity
8
0
100
AcDbLine
10
-99.999999999995168
20
-7.500000000078213
30
0
11
-119.99999999999275
21
-7.5000000000938467
31
0
0
ARC
5
190
100
AcDbEntity
8
0
100
AcDbCircle
10
-119.99999999999203
20
-9.5000000000985629
30
0
40
2.0000000000047158
100
AcDbArc
50
90.000000000020762
51
270.00000000002075
0
LINE
5
191
100
AcDbEntity
8
0
100
AcDbLine
10
-119.9999999999913
20
-11.500000000103279
30
0
11
-119.99999999998677
21
-19.500000000000032
31
0
0
LINE
5
192
100
AcDbEntity
8
0
100
AcDbLine
10
-119.99999999998677
20
-19.500000000000032
30
0
11
-154.51132644566871
21
-19.500000000000032
31
0
0
ARC
5
193
100
AcDbEntity
8
0
100
AcDbCircle
10
-154.51132644566871
20
-21.500000000000025
30
0
40
1.9999999999999929
100
AcDbArc
50
90
51
187.92174828061414
0
ARC
5
194
100
AcDbEntity
8
0
100
AcDbCircle
10
0
20
0
30
0
40
158
100
AcDbArc
50
187.92174828061357
51
292.07825171938646
0
ARC
5
195
100
AcDbEntity
8
0
100
AcDbCircle
10
58.636117041468935
20
-144.56073387437948
30
0
40
2.0000000000000102
100
AcDbArc
50
-67.921748280612746
51
30.000000000000625
0
LINE
5
196
100
AcDbEntity
8
0
100
AcDbLine
10
60.368167849037818
20
-143.56073387437945
30
0
11
43.112504626207873
21
-113.67304845414037
31
0
0
LINE
5
197
100
AcDbEntity
8
0
100
AcDbLine
10
43.112504626207873
20
-113.67304845414037
30
0
11
50.040707856339026
21
-109.67304845474253
31
0
0
ARC
5
198
100
AcDbEntity
8
0
100
AcDbCircle
10
51.77275847038517
20
-108.67304811910579
30
0
40
2.0000000002228102
100
AcDbArc
50
-149.99998890091052
51
30.000000000031747
0
LINE
5
199
100
AcDbEntity
8
0
100
AcDbLine
10
53.504809278146453
20
-107.67304811899342
30
0
11
43.504809471616745
21
-90.352540378443834
31
0
0
ARC
5
200
100
AcDbEntity
8
0
100
AcDbCircle
10
41.772758664047871
20
-91.352540378443834
30
0
40
1.9999999999999978
100
AcDbArc
50
30.000000000000014
51
209.99999999999991
0
LINE
5
201
100
AcDbEntity
8
0
100
AcDbLine
10
40.040707856478988
20
-92.352540378443834
30
0
11
33.112504626203425
21
-96.352540378443877
31
0
0
LINE
5
202
100
AcDbEntity
8
0
100
AcDbLine
10
33.112504626203425
20
-96.352540378443877
30
0
11
-10.680979980008098
21
-20.500000000000043
31
0
0
ARC
5
203
100
AcDbEntity
8
0
100
AcDbCircle
10
-12.413030787576965
20
-21.500000000000036
30
0
40
1.999999999999986
100
AcDbArc
50
29.999999999999979
51
90
0
LINE
5
204
100
AcDbEntity
8
0
100
AcDbLine
10
-10.680979980008093
20
20.500000000000036
30
0
11
33.112504626203446
21
96.352540378443834
31
0
0
LINE
5
205
100
AcDbEntity
8
0
100
AcDbLine
10
33.112504626203446
20
96.352540378443834
30
0
11
40.040707856408126
21
92.352540378473705
31
0
0
ARC
5
206
100
AcDbEntity
8
0
100
AcDbCircle
10
41.772758663977768
20
91.352540378476945
30
0
40
1.9999999999990425
100
AcDbArc
50
150.00000000009135
51
330.00000000004468
0
LINE
5
207
100
AcDbEntity
8
0
100
AcDbLine
10
43.504809471546594
20
90.352540378478778
30
0
11
53.504809471531857
21
107.67304845417327
31
0
0
ARC
5
208
100
AcDbEntity
8
0
100
AcDbCircle
10
51.772758663958527
20
108.673048454175
30
0
40
2.000000000004722
100
AcDbArc
50
-29.999999999979202
51
150.00000000002112
0
LINE
5
209
100
AcDbEntity
8
0
100
AcDbLine
10
50.040707856385197
20
109.67304845417672
30
0
11
43.112504626196838
21
113.67304845412119
31
0
0
LINE
5
210
100
AcDbEntity
8
0
100
AcDbLine
10
43.112504626196838
20
113.67304845412119
30
0
11
60.368167849037832
21
143.56073387437945
31
0
0
ARC
5
211
100
AcDbEntity
8
0
100
AcDbCircle
10
58.636117041468964
20
144.56073387437948
30
0
40
1.9999999999999991
100
AcDbArc
50
-30.000000000000831
51
67.921748280613386
0
ARC
5
212
100
AcDbEntity
8
0
100
AcDbCircle
10
0
20
0
30
0
40
158
100
AcDbArc
50
67.921748280613542
51
172.07825171938649
0
ARC
5
213
100
AcDbEntity
8
0
100
AcDbCircle
10
-154.51132644566871
20
21.499999999999968
30
0
40
1.9999999999999953
100
AcDbArc
50
172.07825171938589
51
270
0
LINE
5
214
100
AcDbEntity
8
0
100
AcDbLine
10
-154.51132644566871
20
19.499999999999975
30
0
11
-120.0000000000089
21
19.499999999999989
31
0
0
LINE
5
215
100
AcDbEntity
8
0
100
AcDbLine
10
-120.0000000000089
20
19.499999999999989
30
0
11
-120.00000000045821
21
11.500000000426095
31
0
0
ARC
5
216
100
AcDbEntity
8
0
100
AcDbCircle
10
-119.9999996130269
20
9.5000000002033183
30
0
40
2.0000000002228133
100
AcDbArc
50
90.000011099089562
51
270.00000000003217
0
LINE
5
217
100
AcDbEntity
8
0
100
AcDbLine
10
-119.99999961302578
20
7.4999999999805036
30
0
11
-99.999999999999986
21
7.4999999999999289
31
0
0
ARC
5
218
100
AcDbEntity
8
0
100
AcDbCircle
10
-99.999999999999986
20
9.4999999999999289
30
0
40
1.9999999999999996
100
AcDbArc
50
-90
51
90
0
LINE
5
219
100
AcDbEntity
8
0
100
AcDbLine
10
-99.999999999999986
20
11.499999999999929
30
0
11
-99.999999999999986
21
19.499999999999996
31
0
0
LINE
5
220
100
AcDbEntity
8
0
100
AcDbLine
10
-99.999999999999986
20
19.499999999999996
30
0
11
-12.413030787576957
21
19.500000000000028
31
0
0
ARC
5
221
100
AcDbEntity
8
0
100
AcDbCircle
10
-12.413030787576966
20
21.500000000000025
30
0
40
1.9999999999999973
100
AcDbArc
50
270.00000000000023
51
330.00000000000023
0
ENDSEC
0
SECTION
2
OBJECTS
0
DICTIONARY
5
C
100
AcDbDictionary
3
ACAD_GROUP
350
D
3
ACAD_MLINESTYLE
350
17
0
DICTIONARY
5
D
100
AcDbDictionary
0
DICTIONARY
5
1A
330
C
100
AcDbDictionary
0
DICTIONARY
5
17
100
AcDbDictionary
0
ENDSEC
0
EOF
